<svg width="570" height="61" viewBox="0 0 570 61" fill="none" xmlns="http://www.w3.org/2000/svg">
<path d="M28.435 31.9062H37.7787C37.5912 34.9688 36.7475 37.6875 35.2475 40.0625C33.7683 42.4375 31.6954 44.2917 29.0287 45.625C26.3829 46.9583 23.1954 47.625 19.4662 47.625C16.5496 47.625 13.935 47.125 11.6225 46.125C9.31 45.1042 7.33083 43.6458 5.685 41.75C4.06 39.8542 2.82041 37.5625 1.96625 34.875C1.11208 32.1875 0.684998 29.1771 0.684998 25.8438V22.6875C0.684998 19.3542 1.1225 16.3438 1.9975 13.6562C2.89333 10.9479 4.16416 8.64583 5.81 6.75C7.47666 4.85417 9.46625 3.39583 11.7787 2.375C14.0912 1.35417 16.6746 0.84375 19.5287 0.84375C23.3204 0.84375 26.5183 1.53125 29.1225 2.90625C31.7475 4.28125 33.7787 6.17708 35.2162 8.59375C36.6746 11.0104 37.5496 13.7604 37.8412 16.8438H28.4662C28.3621 15.0104 27.9975 13.4583 27.3725 12.1875C26.7475 10.8958 25.7996 9.92708 24.5287 9.28125C23.2787 8.61458 21.6121 8.28125 19.5287 8.28125C17.9662 8.28125 16.6017 8.57292 15.435 9.15625C14.2683 9.73958 13.2892 10.625 12.4975 11.8125C11.7058 13 11.1121 14.5 10.7162 16.3125C10.3412 18.1042 10.1537 20.2083 10.1537 22.625V25.8438C10.1537 28.1979 10.3308 30.2708 10.685 32.0625C11.0392 33.8333 11.5808 35.3333 12.31 36.5625C13.06 37.7708 14.0183 38.6875 15.185 39.3125C16.3725 39.9167 17.7996 40.2188 19.4662 40.2188C21.4246 40.2188 23.0392 39.9062 24.31 39.2812C25.5808 38.6562 26.5496 37.7292 27.2162 36.5C27.9037 35.2708 28.31 33.7396 28.435 31.9062ZM64.0125 38.9062V13.1875H73.0125V47H64.5437L64.0125 38.9062ZM65.0125 31.9688L67.6687 31.9062C67.6687 34.1562 67.4083 36.25 66.8875 38.1875C66.3667 40.1042 65.5854 41.7708 64.5437 43.1875C63.5021 44.5833 62.1896 45.6771 60.6062 46.4688C59.0229 47.2396 57.1583 47.625 55.0125 47.625C53.3667 47.625 51.8458 47.3958 50.45 46.9375C49.075 46.4583 47.8875 45.7188 46.8875 44.7188C45.9083 43.6979 45.1375 42.3958 44.575 40.8125C44.0333 39.2083 43.7625 37.2812 43.7625 35.0312V13.1875H52.7625V35.0938C52.7625 36.0938 52.8771 36.9375 53.1062 37.625C53.3562 38.3125 53.7 38.875 54.1375 39.3125C54.575 39.75 55.0854 40.0625 55.6687 40.25C56.2729 40.4375 56.9396 40.5312 57.6687 40.5312C59.5229 40.5312 60.9812 40.1562 62.0437 39.4062C63.1271 38.6562 63.8875 37.6354 64.325 36.3438C64.7833 35.0312 65.0125 33.5729 65.0125 31.9688ZM89.5275 20.5625V47H80.5275V13.1875H88.9962L89.5275 20.5625ZM99.715 12.9688L99.5587 21.3125C99.1212 21.25 98.59 21.1979 97.965 21.1562C97.3608 21.0938 96.8087 21.0625 96.3087 21.0625C95.0379 21.0625 93.9337 21.2292 92.9962 21.5625C92.0796 21.875 91.3087 22.3438 90.6837 22.9688C90.0796 23.5938 89.6212 24.3542 89.3087 25.25C89.0171 26.1458 88.8504 27.1667 88.8087 28.3125L86.9962 27.75C86.9962 25.5625 87.215 23.5521 87.6525 21.7188C88.09 19.8646 88.7254 18.25 89.5587 16.875C90.4129 15.5 91.4546 14.4375 92.6837 13.6875C93.9129 12.9375 95.3192 12.5625 96.9025 12.5625C97.4025 12.5625 97.9129 12.6042 98.4337 12.6875C98.9546 12.75 99.3817 12.8438 99.715 12.9688ZM113.605 20.5625V47H104.605V13.1875H113.074L113.605 20.5625ZM123.792 12.9688L123.636 21.3125C123.199 21.25 122.667 21.1979 122.042 21.1562C121.438 21.0938 120.886 21.0625 120.386 21.0625C119.115 21.0625 118.011 21.2292 117.074 21.5625C116.157 21.875 115.386 22.3438 114.761 22.9688C114.157 23.5938 113.699 24.3542 113.386 25.25C113.095 26.1458 112.928 27.1667 112.886 28.3125L111.074 27.75C111.074 25.5625 111.292 23.5521 111.73 21.7188C112.167 19.8646 112.803 18.25 113.636 16.875C114.49 15.5 115.532 14.4375 116.761 13.6875C117.99 12.9375 119.397 12.5625 120.98 12.5625C121.48 12.5625 121.99 12.6042 122.511 12.6875C123.032 12.75 123.459 12.8438 123.792 12.9688ZM143.62 47.625C140.995 47.625 138.641 47.2083 136.557 46.375C134.474 45.5208 132.703 44.3438 131.245 42.8438C129.807 41.3438 128.703 39.6042 127.932 37.625C127.162 35.625 126.776 33.5 126.776 31.25V30C126.776 27.4375 127.141 25.0938 127.87 22.9688C128.599 20.8438 129.641 19 130.995 17.4375C132.37 15.875 134.037 14.6771 135.995 13.8438C137.953 12.9896 140.162 12.5625 142.62 12.5625C145.016 12.5625 147.141 12.9583 148.995 13.75C150.849 14.5417 152.401 15.6667 153.651 17.125C154.922 18.5833 155.88 20.3333 156.526 22.375C157.172 24.3958 157.495 26.6458 157.495 29.125V32.875H130.62V26.875H148.651V26.1875C148.651 24.9375 148.422 23.8229 147.964 22.8438C147.526 21.8438 146.86 21.0521 145.964 20.4688C145.068 19.8854 143.922 19.5938 142.526 19.5938C141.339 19.5938 140.318 19.8542 139.464 20.375C138.61 20.8958 137.912 21.625 137.37 22.5625C136.849 23.5 136.453 24.6042 136.182 25.875C135.932 27.125 135.807 28.5 135.807 30V31.25C135.807 32.6042 135.995 33.8542 136.37 35C136.766 36.1458 137.318 37.1354 138.026 37.9688C138.755 38.8021 139.63 39.4479 140.651 39.9062C141.693 40.3646 142.87 40.5938 144.182 40.5938C145.807 40.5938 147.318 40.2812 148.714 39.6562C150.13 39.0104 151.349 38.0417 152.37 36.75L156.745 41.5C156.037 42.5208 155.068 43.5 153.839 44.4375C152.63 45.375 151.172 46.1458 149.464 46.75C147.755 47.3333 145.807 47.625 143.62 47.625ZM172.072 20.4062V47H163.072V13.1875H171.51L172.072 20.4062ZM170.76 28.9062H168.322C168.322 26.4062 168.645 24.1562 169.291 22.1562C169.937 20.1354 170.843 18.4167 172.01 17C173.177 15.5625 174.562 14.4688 176.166 13.7188C177.791 12.9479 179.604 12.5625 181.604 12.5625C183.187 12.5625 184.635 12.7917 185.947 13.25C187.26 13.7083 188.385 14.4375 189.322 15.4375C190.281 16.4375 191.01 17.7604 191.51 19.4062C192.031 21.0521 192.291 23.0625 192.291 25.4375V47H183.229V25.4062C183.229 23.9062 183.02 22.7396 182.604 21.9062C182.187 21.0729 181.572 20.4896 180.76 20.1562C179.968 19.8021 178.989 19.625 177.822 19.625C176.614 19.625 175.562 19.8646 174.666 20.3438C173.791 20.8229 173.062 21.4896 172.479 22.3438C171.916 23.1771 171.489 24.1562 171.197 25.2812C170.906 26.4062 170.76 27.6146 170.76 28.9062ZM213.744 40.5938C214.848 40.5938 215.827 40.3854 216.681 39.9688C217.535 39.5312 218.202 38.9271 218.681 38.1562C219.181 37.3646 219.442 36.4375 219.462 35.375H227.931C227.91 37.75 227.275 39.8646 226.025 41.7188C224.775 43.5521 223.098 45 220.994 46.0625C218.89 47.1042 216.535 47.625 213.931 47.625C211.306 47.625 209.015 47.1875 207.056 46.3125C205.119 45.4375 203.504 44.2292 202.212 42.6875C200.921 41.125 199.952 39.3125 199.306 37.25C198.66 35.1667 198.337 32.9375 198.337 30.5625V29.6562C198.337 27.2604 198.66 25.0312 199.306 22.9688C199.952 20.8854 200.921 19.0729 202.212 17.5312C203.504 15.9688 205.119 14.75 207.056 13.875C208.994 13 211.265 12.5625 213.869 12.5625C216.64 12.5625 219.067 13.0938 221.15 14.1562C223.254 15.2188 224.9 16.7396 226.087 18.7188C227.296 20.6771 227.91 23 227.931 25.6875H219.462C219.442 24.5625 219.202 23.5417 218.744 22.625C218.306 21.7083 217.66 20.9792 216.806 20.4375C215.973 19.875 214.942 19.5938 213.712 19.5938C212.4 19.5938 211.327 19.875 210.494 20.4375C209.66 20.9792 209.015 21.7292 208.556 22.6875C208.098 23.625 207.775 24.6979 207.587 25.9062C207.421 27.0938 207.337 28.3438 207.337 29.6562V30.5625C207.337 31.875 207.421 33.1354 207.587 34.3438C207.754 35.5521 208.067 36.625 208.525 37.5625C209.004 38.5 209.66 39.2396 210.494 39.7812C211.327 40.3229 212.41 40.5938 213.744 40.5938ZM243.821 43.1875L252.79 13.1875H262.446L248.852 52.0938C248.561 52.9479 248.165 53.8646 247.665 54.8438C247.186 55.8229 246.53 56.75 245.696 57.625C244.884 58.5208 243.852 59.25 242.602 59.8125C241.373 60.375 239.863 60.6562 238.071 60.6562C237.217 60.6562 236.519 60.6042 235.977 60.5C235.436 60.3958 234.79 60.25 234.04 60.0625V53.4688C234.269 53.4688 234.509 53.4688 234.759 53.4688C235.009 53.4896 235.248 53.5 235.477 53.5C236.665 53.5 237.634 53.3646 238.384 53.0938C239.134 52.8229 239.738 52.4062 240.196 51.8438C240.655 51.3021 241.019 50.5938 241.29 49.7188L243.821 43.1875ZM240.071 13.1875L247.415 37.6875L248.696 47.2188L242.571 47.875L230.415 13.1875H240.071ZM310.195 31.9062H319.539C319.351 34.9688 318.508 37.6875 317.008 40.0625C315.528 42.4375 313.455 44.2917 310.789 45.625C308.143 46.9583 304.955 47.625 301.226 47.625C298.31 47.625 295.695 47.125 293.383 46.125C291.07 45.1042 289.091 43.6458 287.445 41.75C285.82 39.8542 284.58 37.5625 283.726 34.875C282.872 32.1875 282.445 29.1771 282.445 25.8438V22.6875C282.445 19.3542 282.883 16.3438 283.758 13.6562C284.653 10.9479 285.924 8.64583 287.57 6.75C289.237 4.85417 291.226 3.39583 293.539 2.375C295.851 1.35417 298.435 0.84375 301.289 0.84375C305.08 0.84375 308.278 1.53125 310.883 2.90625C313.508 4.28125 315.539 6.17708 316.976 8.59375C318.435 11.0104 319.31 13.7604 319.601 16.8438H310.226C310.122 15.0104 309.758 13.4583 309.133 12.1875C308.508 10.8958 307.56 9.92708 306.289 9.28125C305.039 8.61458 303.372 8.28125 301.289 8.28125C299.726 8.28125 298.362 8.57292 297.195 9.15625C296.028 9.73958 295.049 10.625 294.258 11.8125C293.466 13 292.872 14.5 292.476 16.3125C292.101 18.1042 291.914 20.2083 291.914 22.625V25.8438C291.914 28.1979 292.091 30.2708 292.445 32.0625C292.799 33.8333 293.341 35.3333 294.07 36.5625C294.82 37.7708 295.778 38.6875 296.945 39.3125C298.133 39.9167 299.56 40.2188 301.226 40.2188C303.185 40.2188 304.799 39.9062 306.07 39.2812C307.341 38.6562 308.31 37.7292 308.976 36.5C309.664 35.2708 310.07 33.7396 310.195 31.9062ZM324.335 30.4375V29.7812C324.335 27.3021 324.689 25.0208 325.397 22.9375C326.106 20.8333 327.137 19.0104 328.491 17.4688C329.845 15.9271 331.512 14.7292 333.491 13.875C335.47 13 337.741 12.5625 340.304 12.5625C342.866 12.5625 345.147 13 347.147 13.875C349.147 14.7292 350.825 15.9271 352.179 17.4688C353.554 19.0104 354.595 20.8333 355.304 22.9375C356.012 25.0208 356.366 27.3021 356.366 29.7812V30.4375C356.366 32.8958 356.012 35.1771 355.304 37.2812C354.595 39.3646 353.554 41.1875 352.179 42.75C350.825 44.2917 349.158 45.4896 347.179 46.3438C345.2 47.1979 342.929 47.625 340.366 47.625C337.804 47.625 335.522 47.1979 333.522 46.3438C331.543 45.4896 329.866 44.2917 328.491 42.75C327.137 41.1875 326.106 39.3646 325.397 37.2812C324.689 35.1771 324.335 32.8958 324.335 30.4375ZM333.335 29.7812V30.4375C333.335 31.8542 333.46 33.1771 333.71 34.4062C333.96 35.6354 334.356 36.7188 334.897 37.6562C335.46 38.5729 336.189 39.2917 337.085 39.8125C337.981 40.3333 339.075 40.5938 340.366 40.5938C341.616 40.5938 342.689 40.3333 343.585 39.8125C344.481 39.2917 345.2 38.5729 345.741 37.6562C346.283 36.7188 346.679 35.6354 346.929 34.4062C347.2 33.1771 347.335 31.8542 347.335 30.4375V29.7812C347.335 28.4062 347.2 27.1146 346.929 25.9062C346.679 24.6771 346.272 23.5938 345.71 22.6562C345.168 21.6979 344.45 20.9479 343.554 20.4062C342.658 19.8646 341.575 19.5938 340.304 19.5938C339.033 19.5938 337.95 19.8646 337.054 20.4062C336.179 20.9479 335.46 21.6979 334.897 22.6562C334.356 23.5938 333.96 24.6771 333.71 25.9062C333.46 27.1146 333.335 28.4062 333.335 29.7812ZM371.35 20.4062V47H362.35V13.1875H370.788L371.35 20.4062ZM370.038 28.9062H367.6C367.6 26.4062 367.923 24.1562 368.569 22.1562C369.215 20.1354 370.121 18.4167 371.288 17C372.454 15.5625 373.84 14.4688 375.444 13.7188C377.069 12.9479 378.881 12.5625 380.881 12.5625C382.465 12.5625 383.913 12.7917 385.225 13.25C386.538 13.7083 387.663 14.4375 388.6 15.4375C389.558 16.4375 390.288 17.7604 390.788 19.4062C391.308 21.0521 391.569 23.0625 391.569 25.4375V47H382.506V25.4062C382.506 23.9062 382.298 22.7396 381.881 21.9062C381.465 21.0729 380.85 20.4896 380.038 20.1562C379.246 19.8021 378.267 19.625 377.1 19.625C375.892 19.625 374.84 19.8646 373.944 20.3438C373.069 20.8229 372.34 21.4896 371.756 22.3438C371.194 23.1771 370.767 24.1562 370.475 25.2812C370.183 26.4062 370.038 27.6146 370.038 28.9062ZM410.552 40.4375L418.052 13.1875H427.459L416.052 47H410.365L410.552 40.4375ZM405.396 13.1875L412.927 40.4688L413.084 47H407.365L395.959 13.1875H405.396ZM447.255 47.625C444.63 47.625 442.276 47.2083 440.193 46.375C438.109 45.5208 436.338 44.3438 434.88 42.8438C433.443 41.3438 432.338 39.6042 431.568 37.625C430.797 35.625 430.411 33.5 430.411 31.25V30C430.411 27.4375 430.776 25.0938 431.505 22.9688C432.234 20.8438 433.276 19 434.63 17.4375C436.005 15.875 437.672 14.6771 439.63 13.8438C441.588 12.9896 443.797 12.5625 446.255 12.5625C448.651 12.5625 450.776 12.9583 452.63 13.75C454.484 14.5417 456.036 15.6667 457.286 17.125C458.557 18.5833 459.515 20.3333 460.161 22.375C460.807 24.3958 461.13 26.6458 461.13 29.125V32.875H434.255V26.875H452.286V26.1875C452.286 24.9375 452.057 23.8229 451.599 22.8438C451.161 21.8438 450.495 21.0521 449.599 20.4688C448.703 19.8854 447.557 19.5938 446.161 19.5938C444.974 19.5938 443.953 19.8542 443.099 20.375C442.245 20.8958 441.547 21.625 441.005 22.5625C440.484 23.5 440.088 24.6042 439.818 25.875C439.568 27.125 439.443 28.5 439.443 30V31.25C439.443 32.6042 439.63 33.8542 440.005 35C440.401 36.1458 440.953 37.1354 441.661 37.9688C442.39 38.8021 443.265 39.4479 444.286 39.9062C445.328 40.3646 446.505 40.5938 447.818 40.5938C449.443 40.5938 450.953 40.2812 452.349 39.6562C453.765 39.0104 454.984 38.0417 456.005 36.75L460.38 41.5C459.672 42.5208 458.703 43.5 457.474 44.4375C456.265 45.375 454.807 46.1458 453.099 46.75C451.39 47.3333 449.443 47.625 447.255 47.625ZM475.895 20.5625V47H466.895V13.1875H475.364L475.895 20.5625ZM486.082 12.9688L485.926 21.3125C485.489 21.25 484.957 21.1979 484.332 21.1562C483.728 21.0938 483.176 21.0625 482.676 21.0625C481.405 21.0625 480.301 21.2292 479.364 21.5625C478.447 21.875 477.676 22.3438 477.051 22.9688C476.447 23.5938 475.989 24.3542 475.676 25.25C475.385 26.1458 475.218 27.1667 475.176 28.3125L473.364 27.75C473.364 25.5625 473.582 23.5521 474.02 21.7188C474.457 19.8646 475.093 18.25 475.926 16.875C476.78 15.5 477.822 14.4375 479.051 13.6875C480.28 12.9375 481.687 12.5625 483.27 12.5625C483.77 12.5625 484.28 12.6042 484.801 12.6875C485.322 12.75 485.749 12.8438 486.082 12.9688ZM509.098 13.1875V19.5625H489.41V13.1875H509.098ZM494.285 4.84375H503.285V36.8125C503.285 37.7917 503.41 38.5417 503.66 39.0625C503.931 39.5833 504.327 39.9479 504.848 40.1562C505.368 40.3438 506.025 40.4375 506.816 40.4375C507.379 40.4375 507.879 40.4167 508.316 40.375C508.775 40.3125 509.16 40.25 509.473 40.1875L509.504 46.8125C508.733 47.0625 507.9 47.2604 507.004 47.4062C506.108 47.5521 505.118 47.625 504.035 47.625C502.056 47.625 500.327 47.3021 498.848 46.6562C497.389 45.9896 496.264 44.9271 495.473 43.4688C494.681 42.0104 494.285 40.0938 494.285 37.7188V4.84375ZM530.425 47.625C527.8 47.625 525.446 47.2083 523.362 46.375C521.279 45.5208 519.508 44.3438 518.05 42.8438C516.612 41.3438 515.508 39.6042 514.737 37.625C513.967 35.625 513.581 33.5 513.581 31.25V30C513.581 27.4375 513.946 25.0938 514.675 22.9688C515.404 20.8438 516.446 19 517.8 17.4375C519.175 15.875 520.842 14.6771 522.8 13.8438C524.758 12.9896 526.967 12.5625 529.425 12.5625C531.821 12.5625 533.946 12.9583 535.8 13.75C537.654 14.5417 539.206 15.6667 540.456 17.125C541.727 18.5833 542.685 20.3333 543.331 22.375C543.977 24.3958 544.3 26.6458 544.3 29.125V32.875H517.425V26.875H535.456V26.1875C535.456 24.9375 535.227 23.8229 534.769 22.8438C534.331 21.8438 533.665 21.0521 532.769 20.4688C531.873 19.8854 530.727 19.5938 529.331 19.5938C528.144 19.5938 527.123 19.8542 526.269 20.375C525.415 20.8958 524.717 21.625 524.175 22.5625C523.654 23.5 523.258 24.6042 522.987 25.875C522.737 27.125 522.612 28.5 522.612 30V31.25C522.612 32.6042 522.8 33.8542 523.175 35C523.571 36.1458 524.123 37.1354 524.831 37.9688C525.56 38.8021 526.435 39.4479 527.456 39.9062C528.498 40.3646 529.675 40.5938 530.987 40.5938C532.612 40.5938 534.123 40.2812 535.519 39.6562C536.935 39.0104 538.154 38.0417 539.175 36.75L543.55 41.5C542.842 42.5208 541.873 43.5 540.644 44.4375C539.435 45.375 537.977 46.1458 536.269 46.75C534.56 47.3333 532.612 47.625 530.425 47.625ZM559.065 20.5625V47H550.065V13.1875H558.534L559.065 20.5625ZM569.253 12.9688L569.096 21.3125C568.659 21.25 568.128 21.1979 567.503 21.1562C566.898 21.0938 566.346 21.0625 565.846 21.0625C564.575 21.0625 563.471 21.2292 562.534 21.5625C561.617 21.875 560.846 22.3438 560.221 22.9688C559.617 23.5938 559.159 24.3542 558.846 25.25C558.555 26.1458 558.388 27.1667 558.346 28.3125L556.534 27.75C556.534 25.5625 556.753 23.5521 557.19 21.7188C557.628 19.8646 558.263 18.25 559.096 16.875C559.95 15.5 560.992 14.4375 562.221 13.6875C563.45 12.9375 564.857 12.5625 566.44 12.5625C566.94 12.5625 567.45 12.6042 567.971 12.6875C568.492 12.75 568.919 12.8438 569.253 12.9688Z" fill="url(#paint0_radial_14_69)"/>
<defs>
<radialGradient id="paint0_radial_14_69" cx="0" cy="0" r="1" gradientUnits="userSpaceOnUse" gradientTransform="translate(284 25.5) scale(286.5 286.5)">
<stop offset="0.17541" stop-color="#DECBA4"/>
<stop offset="0.751484" stop-color="#3E5151"/>
</radialGradient>
</defs>
</svg>
